<svg id="Layer_1" data-name="Layer 1" xmlns="http://www.w3.org/2000/svg" viewBox="0 0 175 50"><defs><style>.cls-1{fill:#fff;}</style></defs><title>bc</title><g id="g10"><g id="g12"><path id="path14" class="cls-1" d="M56.8,21.13c-2,0-3,1.57-3,3.95S54.88,29,56.8,29c2.17,0,3-2,3-3.92s-1-3.95-3-3.95m-5.32-5.9h2.38v5.7h0a3.89,3.89,0,0,1,3.21-1.75c3.4,0,5,2.68,5,5.94,0,3-1.46,5.83-4.65,5.83-1.46,0-3-.37-3.74-1.84h0v1.54H51.48V15.23h0"/><path id="path16" class="cls-1" d="M70.41,26.89c0,1.55-1.63,2.11-2.67,2.11-.84,0-2.19-.32-2.19-1.42,0-1.3.92-1.68,1.94-1.86a8.1,8.1,0,0,0,2.92-.67Zm10.18-7.71a3.85,3.85,0,0,0-3.36,2l0,0V19.49H74.93V29H73.35c-.44,0-.57-.23-.57-.84V22.42c0-2.35-2.21-3.24-4.32-3.24-2.38,0-4.73.84-4.9,3.72h2.38c.1-1.21,1-1.77,2.38-1.77,1,0,2.23.23,2.23,1.51,0,1.44-1.52,1.25-3.23,1.57-2,.24-4.16.69-4.16,3.48,0,2.18,1.76,3.26,3.7,3.26a5.41,5.41,0,0,0,3.73-1.36A1.61,1.61,0,0,0,72.43,31c.39,0,1.15-.15,4.87-.28v0h0V24.06a2.68,2.68,0,0,1,2.61-2.93c1.4,0,2.07.75,2.11,2.5v7h2.38V23a3.47,3.47,0,0,0-3.82-3.8"/><path id="path18" class="cls-1" d="M91.33,29c2.13,0,3-2,3-3.95,0-2.46-1.15-3.92-3-3.92-2.24,0-3,2.05-3,4.05s.92,3.82,3,3.82m5.32,1.64H94.4V29.13h0A3.55,3.55,0,0,1,91,31c-3.4,0-5-2.62-5-6,0-4,2.32-5.81,4.68-5.81a4.1,4.1,0,0,1,3.58,1.75h0v-5.7h2.37V30.64h0"/><path id="path20" class="cls-1" d="M106.11,23.22a2.31,2.31,0,0,0-2.47-2.09c-1.23,0-3,.67-3,4.05,0,1.86.79,3.82,2.86,3.82a2.6,2.6,0,0,0,2.57-2.54h2.37c-.43,2.89-2.16,4.49-4.94,4.49-3.38,0-5.24-2.49-5.24-5.77s1.78-6,5.32-6c2.51,0,4.64,1.3,4.86,4h-2.37"/><path id="path22" class="cls-1" d="M116.67,26.89C116.67,28.44,115,29,114,29c-.83,0-2.19-.32-2.19-1.42,0-1.3.92-1.68,1.94-1.86a8.1,8.1,0,0,0,2.93-.67Zm16.56-7.71A3.89,3.89,0,0,0,129.85,21a3,3,0,0,0-3-1.86A3.59,3.59,0,0,0,123.51,21h-.06V19.49h-2.26V29h-1.58c-.44,0-.57-.23-.57-.84V22.42c0-2.35-2.21-3.24-4.32-3.24-2.37,0-4.73.84-4.9,3.72h2.38c.1-1.21,1-1.77,2.38-1.77,1,0,2.23.23,2.23,1.51,0,1.44-1.52,1.25-3.23,1.57-2,.24-4.16.69-4.16,3.48,0,2.18,1.76,3.26,3.7,3.26a5.41,5.41,0,0,0,3.73-1.36A1.61,1.61,0,0,0,118.69,31c.39,0,1.15-.15,4.83-.28v0h0V24c0-1.86,1.13-2.89,2.36-2.89,1.44,0,1.9.82,1.9,2.35v7.16h2.38V24.1c0-1.87.68-3,2.29-3,1.86,0,2,1.23,2,3v6.51h2.38v-7.7c0-2.72-1.33-3.76-3.61-3.76"/><path id="path24" class="cls-1" d="M144.31,21.13c-2,0-3,1.57-3,3.95s1.1,3.92,3,3.92c2.17,0,3-2,3-3.92s-1-3.95-3-3.95M139,19.49h2.26V21h0a3.57,3.57,0,0,1,3.34-1.82c3.4,0,5,2.68,5,5.94,0,3-1.46,5.83-4.65,5.83a4.15,4.15,0,0,1-3.61-1.75h0v5.57H139V19.49h0"/><path id="path26" class="cls-1" d="M43.16,30.61H25.33l8.33-15.38H51.5L43.16,30.61"/></g></g></svg>