<?xml version="1.0" encoding="utf-8"?>
<!-- Generator: Adobe Illustrator 23.0.3, SVG Export Plug-In . SVG Version: 6.00 Build 0)  -->
<svg version="1.1" id="Calque_1" xmlns="http://www.w3.org/2000/svg" xmlns:xlink="http://www.w3.org/1999/xlink" x="0px" y="0px"
	 viewBox="0 0 761.5 156.9" style="enable-background:new 0 0 761.5 156.9;" xml:space="preserve">
<title>malocalogo</title>
<g id="Layer_2">
	<g>
		<path d="M561.7,23.8c-9.5,0-13.7,5.9-13.7,23.8c0,58,19.3,73.5,45.7,73.5s34.5-25,39-25c1.4,0,1.7,1.1,1.7,3.4
			c0,17.1-12.3,56.6-45.4,56.6c-45.7,0-59.6-44.8-59.6-65.9c0-44.6,32.7-89.2,47.2-89.2c7.3,0,17.9,1.7,30.6,1.7
			c9.3,0,17.7-2.8,22.4-2.8c1.7,0,3.9,0.3,3.9,4.2c0,16-8.7,42.6-16.5,42.6C603.8,46.8,587.5,23.8,561.7,23.8z"/>
		<path d="M64.7,84.3C64.4,45.8,54.6,34,43.3,34c-10.1,0-17.8,8.4-17.8,33.7c0,37.8,29.1,55.1,29.1,84.6c0,1.9-1.2,2.9-3.4,2.9
			c-2.9,0-14.7-1-25.3-1c-4.1,0-19.7,1-22.4,1c-2.4,0-3.6-1-3.6-3.1c0-20.4,22.6-52.9,22.6-87c0-26.5-19.7-44-19.7-59.4
			c0-2.2,0.7-3.4,4.1-3.4c3.6,0,19,1.2,25.3,1.2c9.4,0,15.6-1.7,23.1-1.7c6.3,0,7.5,2.4,9.4,43c2.6,53.4,10.3,56.3,17.8,56.3
			c7,0,14.7-2.9,17.8-56.3c1.4-40.6,2.7-43,9.4-43c7,0,13.2,1.7,23.1,1.7c5.8,0,21.2-1.2,25.2-1.2c2.9,0,4.1,1.2,4.1,3.4
			c0,15.1-20.2,33-19.7,59.4c-0.5,34.1,22.6,66.6,22.6,87c0,2.2-1.7,3.1-3.6,3.1c-3.1,0-18.8-1-22.4-1c-11.1,0-22.8,1-25.3,1
			c-2.7,0-3.4-1-3.4-2.9c0-29.8,28.6-46.9,29.1-84.7C139,42.4,131.3,34,121.7,34c-11.8,0-21.7,11.8-21.4,50.3
			c-1,60.1-5,64.4-18,64.4S65.2,144.4,64.7,84.3z"/>
		<path d="M220.5,153.3c0,1.2-1,2.2-2.3,2.2c0,0-0.1,0-0.1,0c-3.1,0-13.9-1-21.2-1c-5.1,0-13.2,1-16.6,1c-2.1-0.1-3.7-1.8-3.6-3.8
			c0-5.3,1.9-13.2,5.8-25.7c7.9-26.7,24.8-85.9,24.8-121.2c0-1.4,1.2-2.4,3.1-2.4c4.6,0,14.2,1.2,28.9,1.2c10.6,0,19-1.2,21.4-1.2
			c2.2,0,3.1,1.9,3.1,4.1c10.6,94.3,31.5,129.1,31.5,145.5c0,2.6-1.5,3.6-3.6,3.6c-4.3,0-13-1.7-18.3-1.7c-7.2,0-18.5,1.7-21.4,1.7
			c-1.4,0.2-2.7-0.9-2.9-2.3c0-0.1,0-0.2,0-0.4c0-8.4,19-23.3,19-38.2c0-13.9-11.8-18-32.7-18c-25,0-35.6,4.1-35.6,18.8
			C199.8,129.7,220.5,143.2,220.5,153.3z M256.6,51.1c-6.7-13-17.3-20.2-25.3-20.2c-10.8,0-20.2,9.4-24.3,19.5
			c-5,11.1-8.4,22.6-8.4,31c0,10.3,8.4,13.5,35.8,13.5c23.8,0,28.9-4.1,28.9-14.2C263.3,70.4,261,60.3,256.6,51.1z"/>
		<path d="M376.6,87.9c1.2,0,1.7,0.7,2.6,3.6c7,21.6,33.7,32.7,33.7,58.9c0,3.1-1.2,5.3-5.5,5.3c-6,0-28.4-1.7-48.8-1.7
			c-14.9,0-37.3,2.2-47.4,2.2c-2.9,0-5-1.7-5-5.8c0-5.8,20.4-27.7,20.4-55.1c0-23.6-19.7-44-19.5-74.3c0.2-12,9.1-19.7,22.1-19.7
			c5.5-0.2,12.7,1.2,20,1.2c6,0,13.5-1,17.8-1c2.2,0,3.6,0.7,3.6,2.9c0,8.7-26.9,16.1-27.7,39.7c0,4.6,0.7,10.6,0.7,15.2
			c-0.7,31.7-19.7,41.4-19.7,67.1c0,19.2,17.8,25.5,27.4,25.5c18.5,0,19.5-13.5,19.5-35.8C370.8,93.4,373.7,87.9,376.6,87.9z
			 M387.4,76.1c-6.5,0-15.6-9.1-15.6-15.4c0-7.2,8.6-15.4,15.6-15.4s15.4,8.2,15.4,15.4C402.8,67,393.6,76.1,387.4,76.1z"/>
		<path d="M516.5,77.1c0,22.6-19.5,44.3-22.9,62.3c-2.4,12.3-10.3,17.6-23.8,17.6c-15.4,0-22.4-2.9-27.7-17.1
			c-6.5-16.6-22.1-33.9-22.1-59.4c0-24.8,14.4-35.3,17.1-60.4c1.7-15.4,8.2-19.5,31.3-19.5C505.7,0.6,516.5,35.7,516.5,77.1z
			 M502.6,104.7c0-36.1-26-76.9-53.1-76.9c-11.8,0-16.4,10.8-16.4,21.4c0,45.2,32.7,74.8,55.3,74.8
			C497.5,124,502.6,115.8,502.6,104.7z"/>
		<path d="M686.7,153.3c0,1.2-1,2.2-2.3,2.2c0,0-0.1,0-0.1,0c-3.1,0-14-1-21.2-1c-5,0-13.2,1-16.6,1c-2.1-0.1-3.7-1.8-3.6-3.8
			c0-5.3,1.9-13.2,5.8-25.7c7.9-26.7,24.8-85.9,24.8-121.2c0-1.4,1.2-2.4,3.1-2.4c4.6,0,14.2,1.2,28.9,1.2c10.6,0,19-1.2,21.4-1.2
			c2.2,0,3.1,1.9,3.1,4.1c10.6,94.3,31.5,129.1,31.5,145.5c0,2.6-1.5,3.6-3.6,3.6c-4.3,0-13-1.7-18.3-1.7c-7.2,0-18.5,1.7-21.4,1.7
			c-1.4,0.2-2.7-0.9-2.9-2.3c0-0.1,0-0.2,0-0.4c0-8.4,19-23.3,19-38.2c0-13.9-11.8-18-32.7-18c-25,0-35.6,4.1-35.6,18.8
			C666.1,129.7,686.7,143.2,686.7,153.3z M722.8,51.1c-6.7-13-17.3-20.2-25.3-20.2c-10.8,0-20.2,9.4-24.3,19.5
			c-5,11.1-8.4,22.6-8.4,31c0,10.3,8.4,13.5,35.8,13.5c23.8,0,28.9-4.1,28.9-14.2C729.5,70.4,727.2,60.3,722.8,51.1z"/>
	</g>
</g>
</svg>
