<svg xmlns="http://www.w3.org/2000/svg" viewBox="0 0 761.53 156.9"><defs><style>.cls-1{fill:#fff;}</style></defs><title>malocalogo</title><g id="Layer_2" data-name="Layer 2"><g id="Calque_1" data-name="Calque 1"><path class="cls-1" d="M561.7,23.83c-9.53,0-13.74,5.89-13.74,23.84,0,58,19.31,73.49,45.67,73.49s34.52-25,39-25c1.4,0,1.68,1.12,1.68,3.37,0,17.1-12.34,56.64-45.42,56.64-45.71,0-59.57-44.82-59.57-65.89,0-44.59,32.65-89.17,47.23-89.17,7.29,0,17.94,1.68,30.56,1.68,9.25,0,17.67-2.8,22.43-2.8,1.69,0,3.93.28,3.93,4.21,0,16-8.69,42.62-16.54,42.62C603.76,46.83,587.5,23.83,561.7,23.83Z"/><path class="cls-1" d="M64.69,84.28C64.44,45.8,54.59,34,43.28,34c-10.1,0-17.79,8.42-17.79,33.66,0,37.76,29.1,55.07,29.1,84.65,0,1.92-1.21,2.88-3.37,2.88-2.89,0-14.67-1-25.25-1-4.09,0-19.72,1-22.36,1-2.41,0-3.61-1-3.61-3.12,0-20.44,22.6-52.9,22.6-87,0-26.45-19.71-44-19.71-59.4,0-2.16.72-3.36,4.08-3.36,3.61,0,19,1.2,25.25,1.2,9.38,0,15.63-1.68,23.09-1.68,6.25,0,7.45,2.4,9.38,43C67.33,98.22,75,101.11,82.48,101.11c7,0,14.67-2.89,17.79-56.27,1.45-40.64,2.65-43,9.38-43,7,0,13.23,1.68,23.09,1.68,5.77,0,21.16-1.2,25.24-1.2,2.89,0,4.09,1.2,4.09,3.36,0,15.15-20.2,33-19.72,59.4C141.87,99.19,165,131.65,165,152.09c0,2.16-1.68,3.12-3.61,3.12-3.12,0-18.75-1-22.36-1-11.06,0-22.85,1-25.25,1-2.65,0-3.37-1-3.37-2.88,0-29.82,28.62-46.89,29.1-84.65C139,42.44,131.29,34,121.67,34,109.89,34,100,45.8,100.27,84.28c-1,60.11-5,64.44-18,64.44S65.17,144.39,64.69,84.28Z"/><path class="cls-1" d="M220.5,153.29a2.22,2.22,0,0,1-2.4,2.16c-3.13,0-13.95-1-21.16-1-5.05,0-13.23,1-16.6,1a3.73,3.73,0,0,1-3.6-3.84c0-5.29,1.92-13.23,5.77-25.73C190.44,99.19,207.28,40,207.28,4.68c0-1.44,1.2-2.4,3.12-2.4,4.57,0,14.19,1.2,28.86,1.2,10.58,0,19-1.2,21.4-1.2,2.16,0,3.12,1.92,3.12,4.09,10.59,94.26,31.51,129.13,31.51,145.48,0,2.64-1.45,3.6-3.61,3.6-4.33,0-13-1.68-18.28-1.68-7.21,0-18.51,1.68-21.4,1.68a2.59,2.59,0,0,1-2.88-2.64c0-8.42,19-23.33,19-38.24,0-13.94-11.78-18-32.7-18-25,0-35.59,4.09-35.59,18.76C199.82,129.72,220.5,143.19,220.5,153.29Zm36.07-102.2c-6.73-13-17.31-20.2-25.25-20.2-10.82,0-20.2,9.38-24.28,19.48-5,11.06-8.42,22.6-8.42,31,0,10.34,8.42,13.47,35.83,13.47,23.8,0,28.85-4.09,28.85-14.19A68.85,68.85,0,0,0,256.57,51.09Z"/><path class="cls-1" d="M376.56,87.88c1.2,0,1.68.73,2.64,3.61,7,21.64,33.67,32.7,33.67,58.91,0,3.13-1.2,5.29-5.53,5.29-6,0-28.38-1.68-48.82-1.68-14.91,0-37.27,2.17-47.37,2.17-2.88,0-5-1.69-5-5.78,0-5.77,20.44-27.65,20.44-55.06,0-23.57-19.72-44-19.48-74.3.24-12,9.14-19.72,22.13-19.72,5.53-.24,12.74,1.2,19.95,1.2,6,0,13.47-1,17.8-1,2.16,0,3.61.72,3.61,2.88,0,8.66-26.94,16.11-27.66,39.68,0,4.57.72,10.58.72,15.15-.72,31.74-19.71,41.36-19.71,67.09,0,19.24,17.79,25.49,27.41,25.49,18.51,0,19.48-13.47,19.48-35.83C370.79,93.41,373.67,87.88,376.56,87.88ZM387.38,76.1c-6.49,0-15.63-9.14-15.63-15.39,0-7.21,8.65-15.39,15.63-15.39s15.39,8.18,15.39,15.39C402.77,67,393.63,76.1,387.38,76.1Z"/><path class="cls-1" d="M516.51,77.06c0,22.61-19.48,44.25-22.85,62.28-2.4,12.27-10.34,17.56-23.8,17.56-15.39,0-22.37-2.89-27.66-17.08-6.49-16.59-22.12-33.9-22.12-59.39,0-24.77,14.43-35.35,17.07-60.36C438.84,4.68,445.33.6,468.41.6,505.68.6,516.51,35.7,516.51,77.06Zm-13.95,27.66c0-36.07-26-76.95-53.14-76.95-11.79,0-16.36,10.82-16.36,21.4,0,45.21,32.71,74.78,55.31,74.78C497.51,124,502.56,115.78,502.56,104.72Z"/><path class="cls-1" d="M686.74,153.29a2.22,2.22,0,0,1-2.4,2.16c-3.13,0-14-1-21.16-1-5,0-13.23,1-16.59,1a3.73,3.73,0,0,1-3.61-3.84c0-5.29,1.92-13.23,5.77-25.73C656.69,99.19,673.52,40,673.52,4.68c0-1.44,1.2-2.4,3.12-2.4,4.57,0,14.19,1.2,28.86,1.2,10.58,0,19-1.2,21.4-1.2,2.17,0,3.13,1.92,3.13,4.09,10.58,94.26,31.5,129.13,31.5,145.48,0,2.64-1.45,3.6-3.61,3.6-4.33,0-13-1.68-18.27-1.68-7.22,0-18.52,1.68-21.41,1.68a2.59,2.59,0,0,1-2.88-2.64c0-8.42,19-23.33,19-38.24,0-13.94-11.79-18-32.71-18-25,0-35.59,4.09-35.59,18.76C666.06,129.72,686.74,143.19,686.74,153.29Zm36.07-102.2c-6.73-13-17.31-20.2-25.25-20.2-10.82,0-20.19,9.38-24.28,19.48-5,11.06-8.42,22.6-8.42,31,0,10.34,8.42,13.47,35.83,13.47,23.81,0,28.86-4.09,28.86-14.19A68.86,68.86,0,0,0,722.81,51.09Z"/></g></g></svg>