<svg id="Layer_1" data-name="Layer 1" xmlns="http://www.w3.org/2000/svg" viewBox="0 0 175 50"><defs><style>.cls-1{fill:#fff;}</style></defs><title>spoti</title><path class="cls-1" d="M55.31,11.21A13.79,13.79,0,1,0,69.1,25,13.78,13.78,0,0,0,55.31,11.21ZM61.64,31.1a.86.86,0,0,1-1.18.28c-3.24-2-7.32-2.42-12.12-1.33A.86.86,0,1,1,48,28.38c5.25-1.2,9.76-.68,13.39,1.54A.85.85,0,0,1,61.64,31.1Zm1.69-3.76a1.08,1.08,0,0,1-1.48.36,18.1,18.1,0,0,0-13.74-1.61A1.08,1.08,0,0,1,47.48,24,20.09,20.09,0,0,1,63,25.87a1.06,1.06,0,0,1,.36,1.47Zm.14-3.91c-4.44-2.64-11.78-2.88-16-1.59a1.29,1.29,0,0,1-.75-2.47c4.87-1.48,13-1.19,18.09,1.85a1.29,1.29,0,1,1-1.32,2.21ZM79,23.94c-2.38-.57-2.8-1-2.8-1.8s.74-1.33,1.85-1.33a5.42,5.42,0,0,1,3.25,1.24.14.14,0,0,0,.12,0,.17.17,0,0,0,.1-.06l1.17-1.64a.18.18,0,0,0,0-.22,7.08,7.08,0,0,0-4.58-1.58c-2.57,0-4.36,1.54-4.36,3.75,0,2.37,1.55,3.21,4.22,3.85,2.28.53,2.67,1,2.67,1.75s-.78,1.41-2,1.41a5.43,5.43,0,0,1-3.79-1.56.19.19,0,0,0-.12,0,.14.14,0,0,0-.11.06l-1.3,1.55a.15.15,0,0,0,0,.21,7.75,7.75,0,0,0,5.24,2c2.77,0,4.56-1.52,4.56-3.86,0-2-1.17-3.07-4.07-3.78Zm10.35-2.35a3.78,3.78,0,0,0-3,1.44V21.94a.15.15,0,0,0-.15-.15H84.11a.16.16,0,0,0-.16.15V34.06a.16.16,0,0,0,.16.16h2.13a.16.16,0,0,0,.15-.16V30.24a3.84,3.84,0,0,0,3,1.35c2.23,0,4.49-1.71,4.49-5s-2.25-5-4.49-5Zm2,5a2.57,2.57,0,0,1-2.5,2.84,2.65,2.65,0,0,1-2.56-2.84,2.65,2.65,0,0,1,2.56-2.83,2.59,2.59,0,0,1,2.5,2.83Zm8.27-5a5,5,0,1,0,5.1,5,5,5,0,0,0-5.1-5Zm0,7.86A2.71,2.71,0,0,1,97,26.59a2.65,2.65,0,0,1,2.64-2.82,2.72,2.72,0,0,1,2.7,2.86A2.66,2.66,0,0,1,99.67,29.45Zm11.24-7.66h-2.35v-2.4a.16.16,0,0,0-.15-.16h-2.13a.16.16,0,0,0-.16.16v2.4h-1a.16.16,0,0,0-.16.15v1.84a.16.16,0,0,0,.16.15h1v4.74c0,1.92.95,2.89,2.84,2.89a3.87,3.87,0,0,0,2-.5.14.14,0,0,0,.08-.13V29.18a.17.17,0,0,0-.07-.13.18.18,0,0,0-.16,0,2.62,2.62,0,0,1-1.25.3c-.68,0-1-.31-1-1V23.93h2.35a.15.15,0,0,0,.15-.15V21.94a.14.14,0,0,0-.15-.15Zm8.17,0v-.3c0-.86.34-1.25,1.08-1.25a3.7,3.7,0,0,1,1.2.22.14.14,0,0,0,.14,0,.17.17,0,0,0,.07-.13V18.53a.16.16,0,0,0-.11-.15,5.78,5.78,0,0,0-1.78-.26c-2,0-3,1.11-3,3.21v.45h-1a.16.16,0,0,0-.16.15v1.85a.16.16,0,0,0,.16.15h1v7.31a.16.16,0,0,0,.16.16H119a.16.16,0,0,0,.16-.16V23.93h2l3,7.31c-.35.77-.69.92-1.15.92a2.46,2.46,0,0,1-1.18-.33.17.17,0,0,0-.12,0,.12.12,0,0,0-.09.08l-.73,1.59a.16.16,0,0,0,.07.2,4.45,4.45,0,0,0,2.28.58c1.57,0,2.44-.73,3.21-2.7L130.14,22a.14.14,0,0,0,0-.14.15.15,0,0,0-.13-.07h-2.22a.15.15,0,0,0-.15.1l-2.27,6.49-2.49-6.49a.15.15,0,0,0-.14-.1Zm-4.74,0h-2.13a.15.15,0,0,0-.15.15v9.3a.16.16,0,0,0,.15.16h2.13a.16.16,0,0,0,.16-.16v-9.3a.16.16,0,0,0-.16-.15Zm-1-4.24a1.53,1.53,0,1,0,1.53,1.53A1.54,1.54,0,0,0,113.29,17.55ZM132,24.78a1.51,1.51,0,1,1,1.5-1.51A1.49,1.49,0,0,1,132,24.78Zm0-2.86a1.36,1.36,0,1,0,1.35,1.35A1.34,1.34,0,0,0,132,21.92Zm.34,1.5.42.6h-.36l-.38-.55h-.33V24h-.3V22.44h.7c.37,0,.61.19.61.5a.47.47,0,0,1-.36.48Zm-.26-.71h-.39v.5h.39c.2,0,.31-.09.31-.25S132.25,22.71,132.05,22.71Z"/></svg>