<svg id="Layer_1" data-name="Layer 1" xmlns="http://www.w3.org/2000/svg" viewBox="0 0 175 50"><defs><style>.cls-1{fill:#fff;}</style></defs><title>apple</title><g id="icons"><g id="Artboard-Copy-3"><g id="US-UK_Apple_Music_lockup_RGB_blk" data-name="US-UK Apple Music lockup RGB blk"><path class="cls-1" d="M54.11,16.76a4.73,4.73,0,0,0-3-2.71,9.58,9.58,0,0,0-2.72-.29H38.26a9.58,9.58,0,0,0-2.72.29,4.73,4.73,0,0,0-3,2.71,8.78,8.78,0,0,0-.44,3.18V30.06a8.78,8.78,0,0,0,.44,3.18,4.73,4.73,0,0,0,3,2.71,10,10,0,0,0,2.72.29H48.37A9.58,9.58,0,0,0,51.09,36a4.73,4.73,0,0,0,3-2.71,8.78,8.78,0,0,0,.44-3.18V19.94A8.78,8.78,0,0,0,54.11,16.76Zm.13,13.3a8.64,8.64,0,0,1-.42,3.07A4.46,4.46,0,0,1,51,35.65a9.3,9.3,0,0,1-2.63.27H38.26a9.3,9.3,0,0,1-2.63-.27,4.36,4.36,0,0,1-1.48-.77,4.54,4.54,0,0,1-1.34-1.75,8.64,8.64,0,0,1-.42-3.07V19.94a8.64,8.64,0,0,1,.42-3.07,4.54,4.54,0,0,1,1.34-1.75,4.36,4.36,0,0,1,1.48-.77,9,9,0,0,1,2.63-.27H48.37a9,9,0,0,1,2.63.27,4.46,4.46,0,0,1,2.82,2.52,8.64,8.64,0,0,1,.42,3.07Z"/><path class="cls-1" d="M47.91,17.21s-6.51,1.27-7.26,1.43c-.49.1-.66.41-.65.93V28c0,.85-.71.65-1.66.89-1.62.4-1.67,1.12-1.77,1.34a1.69,1.69,0,0,0,1.26,2.19,2.8,2.8,0,0,0,1.32,0,2,2,0,0,0,1.56-1.29,3.41,3.41,0,0,0,.18-1.31V22.71c0-.4.11-.52.51-.6,1.92-.38,3.86-.79,5.78-1.16.44-.09.48.14.48.58v5c0,1-1.9.39-3.11,1.51a1.8,1.8,0,0,0-.37,1.63,1.65,1.65,0,0,0,1.27,1.2A2.72,2.72,0,0,0,48,30.14a2.09,2.09,0,0,0,.5-1.67V17.83C48.54,17.42,48.31,17.14,47.91,17.21Z"/><path class="cls-1" d="M47.91,17.21s-6.51,1.27-7.26,1.43c-.49.1-.66.41-.65.93V28c0,.85-.71.65-1.66.89-1.62.4-1.67,1.12-1.77,1.34a1.69,1.69,0,0,0,1.26,2.19,2.8,2.8,0,0,0,1.32,0,2,2,0,0,0,1.56-1.29,3.41,3.41,0,0,0,.18-1.31V22.71c0-.4.11-.52.51-.6,1.92-.38,3.86-.79,5.78-1.16.44-.09.48.14.48.58v5c0,1-1.9.39-3.11,1.51a1.8,1.8,0,0,0-.37,1.63,1.65,1.65,0,0,0,1.27,1.2A2.72,2.72,0,0,0,48,30.14a2.09,2.09,0,0,0,.5-1.67V17.83C48.54,17.42,48.31,17.14,47.91,17.21Z"/><g id="_Group_4" data-name=" Group 4"><g id="_Group_6" data-name=" Group 6"><g id="_Group_7" data-name=" Group 7"><path id="_Compound_Path_10" data-name=" Compound Path 10" class="cls-1" d="M66.17,26.75H61.94l-1,3H59.13l4-11.1H65l4,11.1H67.19Zm-3.79-1.38h3.35L64.08,20.5h0Z"/><path id="_Compound_Path_11" data-name=" Compound Path 11" class="cls-1" d="M77.66,25.7c0,2.52-1.35,4.14-3.38,4.14a2.77,2.77,0,0,1-2.55-1.42h0v4H70V21.66h1.61V23h0a2.89,2.89,0,0,1,2.58-1.43C76.3,21.57,77.66,23.2,77.66,25.7ZM76,25.7C76,24.07,75.1,23,73.81,23s-2.12,1.1-2.12,2.71.85,2.73,2.12,2.73S76,27.36,76,25.7Z"/><path id="_Compound_Path_12" data-name=" Compound Path 12" class="cls-1" d="M86.56,25.7c0,2.52-1.35,4.14-3.38,4.14a2.74,2.74,0,0,1-2.54-1.42h0v4H78.94V21.66h1.6V23h0a2.9,2.9,0,0,1,2.58-1.43C85.21,21.57,86.56,23.2,86.56,25.7Zm-1.71,0c0-1.63-.84-2.71-2.14-2.71s-2.12,1.1-2.12,2.71.85,2.73,2.12,2.73,2.14-1.07,2.14-2.73Z"/><polygon id="_Compound_Path_13" data-name=" Compound Path 13" class="cls-1" points="87.9 18.65 89.56 18.65 89.56 29.75 87.9 29.75 87.9 18.65"/><path id="_Compound_Path_14" data-name=" Compound Path 14" class="cls-1" d="M98.21,27.37a3.25,3.25,0,0,1-3.49,2.48c-2.35,0-3.81-1.58-3.81-4.11s1.47-4.18,3.74-4.18,3.65,1.54,3.65,4v.57H92.58v.1a2.12,2.12,0,0,0,.58,1.64,2.06,2.06,0,0,0,1.6.65,1.81,1.81,0,0,0,1.87-1.14ZM92.59,25h4a2,2,0,0,0-2-2.06A2,2,0,0,0,92.59,25Z"/><polygon id="_Compound_Path_15" data-name=" Compound Path 15" class="cls-1" points="112.63 29.75 112.63 21.58 112.58 21.58 109.23 29.67 107.96 29.67 104.6 21.58 104.55 21.58 104.55 29.75 102.98 29.75 102.98 18.65 104.97 18.65 108.56 27.41 108.63 27.41 112.21 18.65 114.21 18.65 114.21 29.75 112.63 29.75"/><path id="_Compound_Path_16" data-name=" Compound Path 16" class="cls-1" d="M123.06,29.75h-1.59V28.36h0a2.53,2.53,0,0,1-2.51,1.48,2.69,2.69,0,0,1-2.11-.83,2.73,2.73,0,0,1-.73-2.16V21.66h1.67v4.87c0,1.23.58,1.88,1.73,1.88a1.87,1.87,0,0,0,1.92-2.09V21.66h1.66Z"/><path id="_Compound_Path_17" data-name=" Compound Path 17" class="cls-1" d="M127.79,21.57c1.79,0,3.07,1,3.11,2.42h-1.56c-.07-.72-.68-1.15-1.6-1.15s-1.5.41-1.5,1,.4.81,1.24,1l1.36.31c1.63.4,2.25,1,2.25,2.18,0,1.46-1.39,2.46-3.36,2.46s-3.2-1-3.32-2.45h1.65c.11.78.74,1.19,1.74,1.19s1.62-.41,1.62-1.05-.31-.77-1.15-1l-1.45-.35c-1.46-.36-2.2-1.1-2.2-2.23C124.62,22.54,125.9,21.57,127.79,21.57Z"/><path id="_Compound_Path_18" data-name=" Compound Path 18" class="cls-1" d="M132.38,19.53a1,1,0,0,1,.59-.91.94.94,0,0,1,1.05.2,1,1,0,1,1-1.64.71Zm.13,2.13h1.66v8.09h-1.66Z"/><path id="_Compound_Path_19" data-name=" Compound Path 19" class="cls-1" d="M141.33,24.44A1.79,1.79,0,0,0,139.42,23c-1.27,0-2.12,1.07-2.12,2.75s.85,2.77,2.14,2.77A1.74,1.74,0,0,0,141.33,27h1.6a3.23,3.23,0,0,1-3.51,2.84c-2.3,0-3.81-1.58-3.81-4.14s1.51-4.15,3.8-4.15a3.26,3.26,0,0,1,3.51,2.88Z"/></g></g></g></g></g></g></svg>