<svg id="Layer_1" data-name="Layer 1" xmlns="http://www.w3.org/2000/svg" viewBox="0 0 175 50"><defs><style>.cls-1{fill:#fff;}</style></defs><title>itunes</title><g id="icons"><g id="Artboard-Copy-2"><g id="US_UK_iTunes_Store_Buy_Lockup_RGB_blk" data-name="US UK iTunes Store Buy Lockup RGB blk"><path id="Shape" class="cls-1" d="M56.72,18.36A1.41,1.41,0,0,1,58.13,17a1.31,1.31,0,0,1,1.28,1.4,1.28,1.28,0,0,1-1.28,1.28A1.4,1.4,0,0,1,56.72,18.36Zm.13,2.94h2.43V32.92H56.85Zm8.69,11.62V19.13H60.68V17.08H72.81v2.17H68V33l-2.42-.12Zm17.24,0h-2.3V30.87h0A3.57,3.57,0,0,1,76.9,33a3.86,3.86,0,0,1-4.09-4.21V21.3h2.43v6.89c0,1.79.89,2.68,2.43,2.68a2.72,2.72,0,0,0,2.81-2.93V21.3H82.9l-.12,11.62ZM85.2,21.3h2.3v1.91h0a3.61,3.61,0,0,1,3.58-2c2.55,0,4,1.66,4,4.34v7.41H92.61V26c0-1.79-.77-2.68-2.43-2.68a2.62,2.62,0,0,0-2.68,2.94v6.64H85.07L85.2,21.3Zm22.09,8.17c-.38,2-2.42,3.57-5,3.57-3.32,0-5.49-2.29-5.49-5.87s2.05-6,5.37-6,5.23,2.17,5.23,5.75v.76H99.25v.13a3.1,3.1,0,0,0,3.06,3.32A2.72,2.72,0,0,0,105,29.47Zm-8-3.45H105a2.71,2.71,0,0,0-2.8-2.94A3.06,3.06,0,0,0,99.25,26Zm14.3-4.85c2.55,0,4.34,1.4,4.47,3.45h-2.17a2.06,2.06,0,0,0-2.3-1.66c-1.28,0-2.17.64-2.17,1.53,0,.64.51,1.15,1.79,1.4l1.91.51c2.3.52,3.2,1.41,3.2,3.07,0,2-1.92,3.57-4.86,3.57-2.68,0-4.59-1.4-4.72-3.44H111c.12,1.15,1,1.66,2.55,1.66s2.3-.64,2.3-1.54-.38-1.14-1.66-1.4l-2-.51c-2.05-.51-3.2-1.53-3.2-3.19C109.08,22.57,110.87,21.17,113.55,21.17Z"/></g></g></g></svg>