<svg id="Layer_1" data-name="Layer 1" xmlns="http://www.w3.org/2000/svg" viewBox="0 0 175 50"><defs><style>.cls-1{fill:#fff;}</style></defs><title>sc</title><g id="wsjEM4.tif"><path class="cls-1" d="M118.66,26.84l-.06.54a7.51,7.51,0,0,1-2.35,4.81,7.37,7.37,0,0,1-4.11,2,7,7,0,0,1-1.12.09H89.9a.91.91,0,0,1-1-1q0-12.13,0-24.26a.77.77,0,0,1,.47-.77,9.1,9.1,0,0,1,1.76-.59c.66-.15,1.31-.26,2-.36a11.48,11.48,0,0,1,1.17-.07.86.86,0,0,0,.17,0h.16l.19,0a11.35,11.35,0,0,1,1.93.17,12.92,12.92,0,0,1,3.59,1.12,13.48,13.48,0,0,1,6.73,7.15,12.62,12.62,0,0,1,.88,3.36c0,.16,0,.33.06.5l.16-.05a7.65,7.65,0,0,1,10.42,6.37l.06.54Z"/><path class="cls-1" d="M101.08,42.76c-.16,0-.32,0-.47-.09a2.11,2.11,0,0,1-1.46-1.26,3.81,3.81,0,0,1,0-3.25,2.25,2.25,0,0,1,2.41-1.27,2.22,2.22,0,0,1,2,1.65,3.86,3.86,0,0,1,0,2.68,2.22,2.22,0,0,1-1.93,1.52l-.07,0Zm1.53-3a2.72,2.72,0,0,0-.22-1.11,1.21,1.21,0,0,0-2.2,0,2.81,2.81,0,0,0-.19,1.49,2.77,2.77,0,0,0,.2.75,1.1,1.1,0,0,0,1.09.7,1.14,1.14,0,0,0,1.1-.7A3,3,0,0,0,102.61,39.8Z"/><path class="cls-1" d="M67.59,42.76a3.71,3.71,0,0,1-.48-.1,2.15,2.15,0,0,1-1.49-1.32,3.87,3.87,0,0,1,0-3.06,2.27,2.27,0,0,1,2.48-1.39A2.18,2.18,0,0,1,70,38.42a3.83,3.83,0,0,1-.11,3,2.15,2.15,0,0,1-1.81,1.27l-.08,0Zm1.52-2.95a3,3,0,0,0-.17-1,1.17,1.17,0,0,0-1.12-.8,1.12,1.12,0,0,0-1.12.7,2.8,2.8,0,0,0,0,2.25,1.11,1.11,0,0,0,1.08.69,1.14,1.14,0,0,0,1.1-.69A2.74,2.74,0,0,0,69.11,39.81Z"/><path class="cls-1" d="M62,42.76c-.18,0-.37-.06-.56-.11a2.49,2.49,0,0,1-1.29-.77L60,41.72,60.8,41a1.88,1.88,0,0,0,.93.59,2.24,2.24,0,0,0,1.06,0,.56.56,0,0,0,.47-.68.45.45,0,0,0-.29-.36c-.29-.11-.58-.19-.87-.28s-.65-.18-1-.3a1.56,1.56,0,0,1-.31-2.68A2.45,2.45,0,0,1,62,36.87a2.76,2.76,0,0,1,2.18.79l.06.07h0l-.76.83-.26-.22A1.64,1.64,0,0,0,61.83,38a.5.5,0,0,0-.45.47.4.4,0,0,0,.25.41c.23.09.47.17.71.24a6,6,0,0,1,1.24.39,1.51,1.51,0,0,1,.85,1.66,1.67,1.67,0,0,1-1.58,1.52l-.35.06Z"/><path class="cls-1" d="M73.48,42.76l-.34-.07A2.08,2.08,0,0,1,71.51,41a4.21,4.21,0,0,1-.09-.87c0-1,0-2,0-3.06,0-.1,0-.14.14-.14h1v.17c0,1,0,2,0,2.94a2.52,2.52,0,0,0,.1.73,1.06,1.06,0,0,0,1.12.84,1.09,1.09,0,0,0,1.06-.9,3.05,3.05,0,0,0,.07-.67c0-1,0-2,0-3V37h1c.09,0,.12,0,.12.12s0,.24,0,.37c0,1,0,2,0,3.06a2.53,2.53,0,0,1-.39,1.3,2,2,0,0,1-1.53.93l-.13,0Z"/><path class="cls-1" d="M107,42.76l-.34-.07A2.06,2.06,0,0,1,105,41a3.63,3.63,0,0,1-.1-.87c0-1,0-2,0-3,0-.11,0-.15.15-.15h1c0,.07,0,.12,0,.17,0,1,0,2,0,3a2.91,2.91,0,0,0,.1.72,1.06,1.06,0,0,0,1.12.85,1.09,1.09,0,0,0,1.06-.91,3.5,3.5,0,0,0,.08-.65V37h1c.07,0,.11,0,.11.11,0,1.15,0,2.31,0,3.46a2.4,2.4,0,0,1-.62,1.58,2,2,0,0,1-1.3.63l-.12,0Z"/><path class="cls-1" d="M91.5,42.76c-.15,0-.31,0-.46-.09a2.2,2.2,0,0,1-1.48-1.26,3.66,3.66,0,0,1,0-3.12,2.36,2.36,0,0,1,2.53-1.4A2.07,2.07,0,0,1,93.76,38l.08.15-1,.48,0,0a1.21,1.21,0,0,0-2.13.1,2.48,2.48,0,0,0-.25,1.13,2.38,2.38,0,0,0,.32,1.25,1.21,1.21,0,0,0,2,.06l.15-.21,1,.57a2.06,2.06,0,0,1-1.13,1.1,4.88,4.88,0,0,1-.66.16l-.1,0Z"/><path class="cls-1" d="M56.34,27.1l.09-.48.3-2.31c0-.2.05-.41.08-.61s.11-.26.24-.26.22.09.24.25c.06.34.11.69.16,1,.12.75.25,1.49.35,2.24a2.31,2.31,0,0,1,0,.64c-.13.91-.28,1.82-.43,2.72a2.17,2.17,0,0,1,0,.25.24.24,0,0,1-.25.19.23.23,0,0,1-.21-.22c-.06-.38-.11-.76-.16-1.15-.1-.72-.19-1.45-.29-2.18,0,0,0,0,0-.06Z"/><path class="cls-1" d="M86.3,21l0-1.58c0-.7,0-1.41,0-2.11,0-1.31,0-2.62.08-3.93,0-.85,0-1.69,0-2.53,0-.35,0-.69,0-1a.82.82,0,0,1,.81-.8.81.81,0,0,1,.83.79c0,.56,0,1.12,0,1.69l.06,3.06c0,.68,0,1.36,0,2l.09,3.85c0,1.07,0,2.15.07,3.23s.07,1.93.07,2.9c0,.68,0,1.37-.08,2.05,0,.52-.06,1-.09,1.55l-.15,2.43c0,.29,0,.58-.06.88a.83.83,0,0,1-.86.72.84.84,0,0,1-.79-.81l-.18-3.14c0-.7-.06-1.41-.11-2.11-.11-1.57,0-3.15,0-4.72,0-.81,0-1.61,0-2.42Z"/><path class="cls-1" d="M83.81,20.74V19.27c0-.75,0-1.5,0-2.26,0-1,0-1.94.05-2.92s0-1.77,0-2.66a.89.89,0,0,1,.33-.74.77.77,0,0,1,1.21.5c0,.11,0,.22,0,.32l.06,3.24c0,.67,0,1.34,0,2l.09,4c0,1.1.05,2.2.07,3.3s0,2,.07,3c0,.36,0,.71,0,1.07,0,.59-.06,1.18-.1,1.77,0,.93-.09,1.86-.14,2.79,0,.26,0,.52,0,.79a.8.8,0,0,1-.68.77.76.76,0,0,1-.85-.58,5.16,5.16,0,0,1-.07-.79l-.15-3.22c0-.64-.08-1.28-.08-1.92,0-1.45,0-2.89,0-4.34,0-.81,0-1.63,0-2.45v-.23Z"/><path class="cls-1" d="M83.1,23.38c0,1.1.07,2.2.08,3.29,0,.66,0,1.32-.07,2S83,30,83,30.65c0,.83-.09,1.66-.14,2.49l0,.47a.73.73,0,0,1-1.45,0c0-.9-.09-1.8-.14-2.7,0-1.09-.12-2.18-.16-3.26,0-.54,0-1.08,0-1.62l0-1.17.06-2.75c0-1.42.07-2.85.11-4.27,0-.67,0-1.34,0-2s0-1.31,0-2a.73.73,0,0,1,.72-.71.71.71,0,0,1,.72.7c0,.55,0,1.1.05,1.65,0,1.32.07,2.64.11,4,0,.83,0,1.66.07,2.5,0,.48,0,1,0,1.44Z"/><path class="cls-1" d="M78.59,23.49c0-.37,0-.75,0-1.12,0-.87,0-1.74.06-2.6,0-1,0-2.05.08-3.07,0-.63,0-1.27.05-1.9s0-1,0-1.52a.65.65,0,0,1,.56-.6.66.66,0,0,1,.74.48.78.78,0,0,1,0,.22c0,1.09.07,2.17.1,3.26l.06,2c0,1.08.06,2.17.1,3.26,0,.65,0,1.29,0,1.94,0,1.09.07,2.17.1,3.26,0,.31,0,.61,0,.91,0,.5-.07,1-.1,1.5-.05.76-.09,1.52-.14,2.28,0,.6-.08,1.2-.11,1.8a.69.69,0,0,1-.67.68.66.66,0,0,1-.68-.65c0-.76-.09-1.51-.13-2.26-.06-1-.11-2-.18-3s0-1.95,0-2.92c0-.54,0-1.09,0-1.63v-.3Z"/><path class="cls-1" d="M76,23.53c0-.6,0-1.41.06-2.21l.09-3.13,0-1,.06-2.51c0-.58,0-1.16.06-1.75a.61.61,0,0,1,.63-.6.62.62,0,0,1,.59.62l.09,2.68c0,.79,0,1.59.07,2.38,0,1.13.07,2.27.11,3.41s.07,2.12.1,3.19c0,.74.07,1.49.07,2.24,0,.56,0,1.11-.08,1.67l-.09,1.36-.15,2.15c0,.53-.07,1.07-.11,1.6a.63.63,0,0,1-.63.6.63.63,0,0,1-.61-.62l-.18-2.89c0-.79-.09-1.58-.13-2.37,0-.51-.08-1-.07-1.53C75.92,25.82,76,24.78,76,23.53Z"/><path class="cls-1" d="M75.34,26c0,.36,0,.72,0,1.08s0,.55,0,.83c0,.54-.09,1.09-.13,1.64s-.09,1.32-.14,2-.09,1.29-.14,1.94a2.2,2.2,0,0,1,0,.36.57.57,0,0,1-.61.43.58.58,0,0,1-.51-.54c0-.71-.09-1.42-.13-2.12l-.15-2.23c0-.58-.1-1.17-.1-1.76,0-.9,0-1.8,0-2.69,0-.72,0-1.43.06-2.14,0-1.18.07-2.36.11-3.54,0-.8,0-1.6.07-2.39s.06-1.84.1-2.76c0-.25,0-.5,0-.74a.54.54,0,0,1,.61-.45.56.56,0,0,1,.49.54c0,.78,0,1.56.08,2.34,0,1,.07,2,.11,3l.1,3c0,1.23.09,2.45.13,3.68l0,.62Z"/><path class="cls-1" d="M70.86,26.35c0-1.2.07-2.28.11-3.36s.07-1.89.1-2.84.07-1.93.11-2.89c0-.72,0-1.44.08-2.15,0-.21,0-.41,0-.61A.54.54,0,0,1,71.8,14a.53.53,0,0,1,.5.52c0,.92.08,1.84.11,2.75s.07,1.65.1,2.48c0,1.08.09,2.16.14,3.24,0,.81.07,1.63.1,2.45,0,.51.06,1,.07,1.53,0,.32,0,.64-.06,1,0,.51-.08,1-.12,1.52s-.09,1.25-.14,1.88-.09,1.21-.14,1.82c0,.22,0,.44-.06.66a.51.51,0,0,1-1,0c-.06-.8-.11-1.59-.16-2.39s-.14-1.88-.2-2.82A12.84,12.84,0,0,1,70.86,26.35Z"/><path class="cls-1" d="M70.28,27.11l-.09,1.07-.12,1.42c0,.59-.09,1.18-.14,1.77s-.1,1.13-.14,1.7c0,.23,0,.47-.06.71a.46.46,0,0,1-.46.46.45.45,0,0,1-.46-.46c-.07-.81-.12-1.62-.18-2.43s-.14-1.78-.2-2.67c0-.49-.09-1-.1-1.47s0-.93,0-1.39.05-.95.07-1.42l.12-2.5.06-1.3c0-.84.08-1.68.13-2.52,0-.41,0-.82,0-1.22a.47.47,0,0,1,.42-.47.44.44,0,0,1,.48.4c0,.2,0,.39.05.58,0,.74.07,1.47.11,2.21,0,1,.12,2.06.17,3.09,0,.74.08,1.49.11,2.23S70.24,26.36,70.28,27.11Z"/><path class="cls-1" d="M66.76,34.19a.42.42,0,0,1-.41-.42c-.07-.82-.13-1.64-.19-2.45s-.15-1.89-.23-2.83c0-.45-.08-.89-.09-1.34a5.34,5.34,0,0,1,0-.69L66,25l.15-1.79c0-.48.07-.95.11-1.42s0-.67.08-1a.4.4,0,0,1,.43-.39.43.43,0,0,1,.39.42c.06.7.13,1.41.2,2.11s.1,1.2.16,1.81.14,1.39.19,2.09a5.53,5.53,0,0,1,0,.91c0,.55-.1,1.1-.14,1.64l-.18,1.94c0,.53-.09,1.07-.14,1.6,0,.3,0,.59-.08.89A.41.41,0,0,1,66.76,34.19Z"/><path class="cls-1" d="M65.25,27.13l-.12,1.28L65,30c0,.6-.11,1.2-.17,1.79s-.11,1.18-.16,1.77l0,.26a.36.36,0,0,1-.35.31.33.33,0,0,1-.34-.29c0-.25,0-.51-.08-.76-.06-.71-.12-1.41-.17-2.12s-.11-1.35-.17-2-.1-1.13-.14-1.7a6.13,6.13,0,0,1,.05-.74l.12-1.5.15-1.77c0-.47.07-1,.11-1.42s.07-.93.11-1.39a.43.43,0,0,1,0-.11.35.35,0,0,1,.69,0c0,.37.07.75.1,1.12L64.87,23c0,.41.07.83.11,1.24l.15,1.6Z"/><path class="cls-1" d="M78.58,38.92v3.73H77.49V37l.1,0h.87a.2.2,0,0,1,.15.08l2.33,3.49,0,.06V37h1.11v5.7h-1a.13.13,0,0,1-.1-.08L78.63,39Z"/><path class="cls-1" d="M62.76,27.13c0,.33-.06.67-.1,1,0,.55-.11,1.1-.17,1.65s-.13,1.27-.2,1.91l-.18,1.8c0,.21-.14.33-.3.33s-.3-.12-.32-.33c0-.4-.07-.8-.1-1.2l-.18-1.91c-.05-.61-.11-1.23-.16-1.85,0-.43-.1-.86-.12-1.3a7.34,7.34,0,0,1,0-.81l.12-1.35.15-1.65c0-.42.07-.85.11-1.28s.09-1.06.14-1.6a.32.32,0,0,1,.26-.34.3.3,0,0,1,.34.27c0,.35.07.7.1,1.05L62.35,23c0,.47.09.94.14,1.41s.12,1.14.17,1.71C62.7,26.44,62.73,26.78,62.76,27.13Z"/><path class="cls-1" d="M83.59,42.66V37l.09,0c.69,0,1.38,0,2.07,0a2.49,2.49,0,0,1,1.79.77A2.44,2.44,0,0,1,88.13,39a3.74,3.74,0,0,1-.08,1.82,2.51,2.51,0,0,1-2,1.73,4.79,4.79,0,0,1-.84.09c-.52,0-1,0-1.56,0ZM84.73,38v3.51c.31,0,.61,0,.91,0A1.47,1.47,0,0,0,87,40.36a2.79,2.79,0,0,0,0-1.22,1.23,1.23,0,0,0-1-1C85.54,38.06,85.13,38.06,84.73,38Z"/><path class="cls-1" d="M111,42.66V37a.14.14,0,0,1,.09,0c.7,0,1.39,0,2.08,0a2.45,2.45,0,0,1,1.78.77,2.41,2.41,0,0,1,.59,1.27,3.66,3.66,0,0,1-.08,1.8,2.49,2.49,0,0,1-2,1.75,4.81,4.81,0,0,1-.85.09c-.51,0-1,0-1.53,0Zm1.13-1.12c.32,0,.62,0,.92,0a1.46,1.46,0,0,0,1.34-1.18,2.77,2.77,0,0,0,0-1.31,1.24,1.24,0,0,0-.88-.9,2.46,2.46,0,0,0-.46-.08h-.88Z"/><path class="cls-1" d="M60.3,27.14c0,.34-.09.68-.13,1-.07.58-.15,1.16-.22,1.74s-.17,1.29-.25,1.94l-.09.72c0,.18-.11.28-.26.28s-.23-.1-.25-.29c-.09-.82-.19-1.65-.28-2.47s-.16-1.63-.27-2.43A6.66,6.66,0,0,1,58.62,26c.05-.51.11-1,.17-1.54s.12-1.05.17-1.57.1-.87.14-1.3a.27.27,0,0,1,.25-.27.26.26,0,0,1,.26.26c.09.78.19,1.57.29,2.36l.3,2.39C60.23,26.58,60.27,26.86,60.3,27.14Z"/><path class="cls-1" d="M98.27,41.54v1.12H94.86V37h1c.13,0,.16,0,.16.16v4.43Z"/></g></svg>